<svg width="20" height="20" viewBox="0 0 20 20" fill="none" xmlns="http://www.w3.org/2000/svg">
<path d="M10.0296 0.107902V0.118302C10.0392 0.167102 10.0392 0.226302 10.0392 0.286302V7.3887C10.0296 7.4287 10 7.43831 9.97044 7.45831C9.76324 7.5567 9.56644 7.64549 9.36003 7.73349C9.07363 7.86149 8.77844 7.9999 8.49283 8.1279L7.45844 8.6007C7.17283 8.7287 6.88644 8.8567 6.61044 8.9847C6.27603 9.1431 5.93044 9.29031 5.59603 9.4487C5.31044 9.5767 5.02483 9.71431 4.72883 9.84231C4.49283 9.95031 4.25683 10.0495 4.02963 10.1575C4.01166 10.1685 3.99142 10.1754 3.97044 10.1775C3.96083 10.1775 3.96083 10.1775 3.95044 10.1671L4.21683 9.7239C4.72883 8.8767 5.23124 8.0391 5.74403 7.1919C6.28563 6.28549 6.83763 5.3791 7.37924 4.4727C7.88163 3.6351 8.39444 2.79831 8.89683 1.9607C9.26083 1.3495 9.63524 0.739102 10 0.128702C10.0096 0.107902 10.02 0.0983016 10.02 0.0791016H10.0296C10.02 0.0887016 10.0296 0.0983016 10.0296 0.107902Z" fill="#11B3FE"/>
<path d="M16.0792 10.168L16.0887 10.1776L14.6408 11.0344L10.0888 13.724C10.0688 13.7336 10.0488 13.744 10.0392 13.7536C10.0096 13.7536 10.0096 13.724 10.0096 13.7136V7.53839C10.0096 7.50798 10.0096 7.46878 10.02 7.43918C10.0296 7.39918 10.0592 7.40958 10.0888 7.41918C10.2168 7.47839 10.3544 7.53758 10.4824 7.59678C10.8664 7.77439 11.2512 7.95118 11.6352 8.11918C11.9712 8.26718 12.2952 8.42478 12.6304 8.57198C12.9656 8.71998 13.3008 8.87758 13.6352 9.02558C13.9208 9.15358 14.2168 9.29119 14.5024 9.41919C14.788 9.54719 15.084 9.68558 15.3696 9.81358C15.596 9.91198 15.8223 10.0208 16.0495 10.1192C16.0495 10.1488 16.0592 10.1584 16.0792 10.168Z" fill="#11B3FE"/>
<path d="M10.0296 19.872C10.0296 19.8816 10.02 19.892 10.02 19.9016H10.0096C10.0096 19.8816 9.99044 19.872 9.98003 19.852C9.36963 18.9952 8.75844 18.128 8.14803 17.2713L6.27603 14.6312C5.67524 13.7832 5.06403 12.9264 4.46324 12.0792C4.30563 11.852 4.14803 11.6352 3.99044 11.4088C3.98003 11.3888 3.97044 11.3792 3.95044 11.3496C3.98003 11.3496 4.00003 11.3696 4.00963 11.3792C4.86724 11.8816 5.71363 12.384 6.57124 12.8864C7.55683 13.468 8.53203 14.0496 9.51763 14.6304L10.02 14.9264C10.0392 14.9456 10.0392 14.9656 10.0392 14.9856V19.7336C10.0392 19.7831 10.0392 19.8328 10.0296 19.872Z" fill="#11B3FE"/>
<path d="M3.96081 10.168H4.00081V10.208H3.92081V10.168H3.96081Z" fill="#11B3FE"/>
<path d="M10.06 0.16789C10.02 0.16789 10.02 0.127891 10.02 0.0878906H10.06V0.16789Z" fill="white"/>
<path d="M3.94083 10.1873V10.1777C4.25603 10.0393 4.56162 9.89214 4.87683 9.75373C5.28083 9.56654 5.68483 9.38894 6.08883 9.20173C6.39444 9.06414 6.70962 8.91614 7.01444 8.77773C7.46803 8.57134 7.91123 8.37454 8.36483 8.16734C8.66962 8.02973 8.97523 7.89214 9.29044 7.74334C9.50723 7.64573 9.73362 7.54654 9.95044 7.44814C9.97044 7.43854 10 7.42894 10.0096 7.40894C10.02 7.40894 10.02 7.41854 10.0096 7.42894V13.6849C10.0096 13.7145 10 13.7441 10.02 13.7633C10 13.7929 9.98003 13.7633 9.97044 13.7537C9.87978 13.7049 9.79117 13.6523 9.70483 13.5961C7.80323 12.4729 5.89203 11.3401 3.99044 10.2169C3.9753 10.2049 3.95861 10.1949 3.94083 10.1873ZM16.0592 11.3497H16.0688C16.0688 11.3697 16.0496 11.3897 16.0392 11.4089C14.2264 13.9609 12.4136 16.5225 10.6008 19.0737C10.4136 19.3401 10.2168 19.6058 10.0296 19.8722C10.02 19.8625 10.02 19.8522 10.02 19.8425V14.9169C10.4336 14.6697 10.8376 14.4337 11.2512 14.1873C12.8472 13.2417 14.4432 12.3057 16.0296 11.3601C16.0392 11.3697 16.0496 11.3601 16.0592 11.3497Z" fill="#11B3FE"/>
<path d="M10.02 7.42887V0.197675C10.02 0.167275 10.0096 0.148076 10.0296 0.117676C12.0296 3.43848 14.0296 6.74887 16.02 10.0697C16.0392 10.0985 16.0688 10.1377 16.0792 10.1777C15.9408 10.1281 15.8128 10.0593 15.6848 10.0001C15.5272 9.93128 15.36 9.85208 15.2016 9.78408C15.1032 9.73367 14.9952 9.69448 14.8968 9.64567C14.7288 9.56648 14.5616 9.49767 14.3944 9.41848C14.2939 9.37669 14.1951 9.33078 14.0984 9.28088L13.448 8.98487C13.34 8.93608 13.232 8.88648 13.1136 8.83767L12.64 8.63048C12.5416 8.59048 12.4432 8.54248 12.3448 8.49288L11.6944 8.19687C11.5864 8.14808 11.4784 8.09848 11.36 8.04967L10.8864 7.84248C10.7784 7.79287 10.68 7.74408 10.5712 7.69448C10.384 7.60648 10.1968 7.51767 10 7.43848C10.0296 7.42887 10.02 7.42887 10.02 7.42887Z" fill="#11B3FE"/>
</svg>
